<?xml version="1.0" encoding="UTF-8"?>
<svg id="svg10" xmlns="http://www.w3.org/2000/svg" viewBox="0 0 566.93 566.93">
  <defs>
    <style>
      .cls-1 {
        fill: #606060;
      }
    </style>
  </defs>
  <g>
    <path class="cls-1" d="M336.93,467.42h0l-1.19,4.88,1.19-4.88Zm-75.56,14.3h0l-.1,.43,.1-.43Zm-.69,2.96l.59-2.53-.62,2.53h.03Zm36.22-.89l1.19-4.88h0l-1.19,4.88h0Zm-30.17-17.03l-.37,1.55,.38-1.55h0Zm-2.74,11.39l1.67-6.86,.38-1.55,.8-3.27c.13-.5,.42-.99,.87-1.46,.45-.47,.99-.9,1.59-1.27,.61-.38,1.27-.68,1.99-.92,.72-.24,1.41-.38,2.07-.44,.13-.03,.23-.05,.32-.06,.09-.01,.16-.02,.21-.02h28.38l-2.01,8.22h-21.24c-.07,0-.13,0-.19,0h0s-1.06,0-1.06,0l-.05,.21-.64,2.63h17.34c.66,0,1.26,.13,1.8,.4,.54,.26,1,.58,1.37,.96,.37,.38,.64,.77,.84,1.17,.19,.4,.25,.74,.17,1.02l-1.22,4.99-1.19,4.88-.55,2.23c-.18,.69-.49,1.3-.95,1.82-.45,.51-1.01,.95-1.65,1.29-.64,.35-1.36,.61-2.15,.79-.79,.18-1.58,.27-2.39,.27h-28.03l2.06-8.47h22.23l.61-2.55h-17.3c-.35,0-.8-.08-1.33-.25-.53-.17-1.03-.42-1.5-.75-.47-.33-.84-.75-1.1-1.25-.27-.5-.32-1.09-.17-1.75Zm-88.36,11.77c.59,.95,1.37,1.73,2.33,2.34,.96,.61,2.06,.92,3.3,.92h41l4.61-18.93c.04-.08,.07-.17,.12-.26l2.85-11.7h-6.32c-5.1,0-6.3,3.89-6.44,4.46l-4.19,17.24h-7.69l5.28-21.7h-11.9l-5.28,21.66h-2.54c-.45,0-.97-.03-1.56-.08-.58-.05-1.11-.18-1.59-.38-.48-.19-.86-.48-1.14-.85-.28-.38-.34-.9-.19-1.57l2.59-10.67,.14-.56,.73-3.03h0l1.1-4.53h-11.16l-1.99,8.18-3.18,13.11c-.25,1.03-.28,2.11-.08,3.24,.2,1.13,.6,2.16,1.2,3.11Zm161.34-25.1c-.29-.51-.69-.95-1.2-1.32,0,0-.01-.01-.02-.02-.52-.37-1.09-.67-1.71-.88-.62-.21-1.17-.31-1.65-.31h-28.25l-2,8.22h1.29s9.21-.02,9.21-.02h0s11.62,0,11.62,0v.06s-.79,3.24-.79,3.24h-11.62s-10.62,.01-10.62,.01l-4.72,19.38h10.86l2.66-10.98h17.99c.33,0,.82-.11,1.48-.33,.66-.22,1.32-.51,1.97-.86,.66-.35,1.25-.73,1.79-1.15,.53-.42,.85-.82,.95-1.21l.82-3.36,1.19-4.88,.96-3.94c.15-.58,.08-1.13-.21-1.65Zm-72.03,1.65l-.6,2.45-3.68,15.79-.1,.43-.62,2.53-1.35,5.52h-28.32c-.81,0-1.56-.09-2.26-.27-.7-.18-1.28-.44-1.76-.79-.48-.35-.82-.78-1.02-1.29-.2-.52-.21-1.12-.04-1.82l2.96-12.1c.08-.28,.29-.62,.64-1.02,.35-.4,.8-.79,1.35-1.17,.54-.38,1.15-.7,1.82-.96,.67-.26,1.35-.4,2.03-.4h17.45l.52-2.46,.09-.42h-22.32l1.98-8.18h28.21s.11,0,.19,.02c.08,.01,.18,.03,.3,.06,.61,.05,1.21,.2,1.82,.44,.61,.24,1.13,.54,1.57,.92,.44,.38,.77,.8,.99,1.27,.21,.47,.26,.96,.13,1.46Zm-15.37,15.4h-12.92c-.1,.15-.33,.6-.37,.75-.05,.17-.08,.35-.09,.56-.01,.21,.01,.4,.08,.58,.06,.18,.12,.44,.27,.56,.15,.13,.46,.38,.74,.38h11.51l.78-2.84Z"/>
    <g>
      <g>
        <path class="cls-1" d="M365.02,460.94c.35-.28,.73-.54,1.17-.76,.11-.06,.22-.11,.33-.15l.18-.07s.09-.04,.16-.06c.24-.08,.46-.15,.7-.2,.94-.21,1.95-.2,2.91,.05,1.93,.47,3.64,1.92,4.42,3.82,.38,.94,.56,1.96,.49,2.98-.07,1.01-.38,1.99-.89,2.85-.51,.85-1.21,1.58-2.02,2.1-.8,.52-1.75,.84-2.63,.96-.86,.13-1.72,.17-2.57,.16-.85-.01-1.7-.08-2.53-.23-.83-.15-1.65-.38-2.38-.8-.73-.4-1.34-1.06-1.54-1.87,.02,.07,.05,.15,.07,.22,.03,.07,.06,.14,.09,.21-.03-.07-.07-.14-.09-.21-.03-.07-.05-.14-.07-.22-.23-.8-.12-1.66,.08-2.46,.21-.81,.55-1.58,.94-2.32,.4-.74,.86-1.46,1.38-2.13,.52-.68,1.11-1.32,1.82-1.88Z"/>
        <path class="cls-1" d="M370.05,484.7s-.06,.06-.09,.09c.01-.04,.03-.08,.04-.12-.43-.21-.86-.43-1.29-.65-.6-.31-1.19-.63-1.79-.97-1.22-.7-2.45-1.45-3.67-2.28-1.32-.9-2.62-1.87-3.89-2.93,0,0,.6,1.5,1.74,3.83,2.93,5.97,9.45,17.36,18.72,22.79,.05,.03,.09,.05,.14,.08,1.66-1.06,3.23-2.31,4.67-3.76,1.89-1.89,3.44-3.99,4.67-6.22,.64-1.17,1.2-2.37,1.66-3.6,.03-.09,.06-.18,.1-.27-1.89-.16-11.08-1.14-21.01-5.98Z"/>
        <path class="cls-1" d="M391.04,471.93c-2.74,1.29-6.68,2.88-11.4,4.09-5.21,1.34-11.37,2.21-17.97,1.68,0,0,3.52,2.29,8.75,4.68,.72,.33,1.47,.66,2.24,.98,2.06,.86,4.31,1.7,6.66,2.4,4,1.2,8.31,2.01,12.51,1.94,1.26-5.2,.99-10.7-.8-15.78Z"/>
        <path class="cls-1" d="M361.11,473.54m-1.05-.97c.05,.06,.1,.13,.15,.19,.12,.13,.24,.26,.36,.37,.68,.63,1.48,1.11,2.34,1.47,1.72,.71,3.58,.98,5.44,1.06,1.86,.07,3.73-.04,5.58-.31,1.85-.26,3.69-.65,5.5-1.21,1.83-.53,3.66-1.47,5.16-2.8,1.5-1.32,2.74-2.98,3.54-4.85,.03-.08,.06-.16,.09-.24,.1-.25,.2-.51,.29-.77,.54-1.59,.79-3.29,.71-4.98-.09-2.06-.68-4.09-1.66-5.9-.99-1.81-2.39-3.4-4.07-4.59-.34-.24-.7-.47-1.07-.68-.84-.57-1.7-1.08-2.59-1.55-2.08-1.09-4.27-1.89-6.5-2.45-4.47-1.11-9.07-1.18-13.49-.56,4.28-.04,8.54,.6,12.45,2.05-.05,0-.1,0-.15,0-2.19,.05-4.29,.45-6.34,.93-2.05,.48-4.06,1.05-6.07,1.65,2.07-.31,4.14-.59,6.21-.78,1.57-.13,3.14-.22,4.67-.15-.05,.02-.1,.04-.15,.06-.43,.18-.92,.42-1.34,.67-.87,.51-1.64,1.1-2.36,1.75,0,0-.02,.02-.03,.03-.77,.69-1.46,1.45-2.11,2.23-.55,.66-1.07,1.35-1.55,2.05-1.07,1.54-1.96,3.18-2.71,4.88-.74,1.7-1.34,3.47-1.66,5.29-.27,1.59-.33,3.27,.13,4.83,.06,.21,.13,.42,.22,.63,.08,.2,.17,.39,.27,.57,.1,.19,.21,.36,.33,.54,.04,.06,.09,.12,.13,.19h0c.12,.17,.25,.33,.39,.49m.94,.88,20.18-9.29c-.02,.33-.07,.65-.12,.97-.14,.83-.39,1.65-.74,2.4-.62,1.36-1.56,2.56-2.69,3.47-1.12,.92-2.49,1.55-3.79,1.86-1.27,.33-2.55,.54-3.83,.65-1.28,.12-2.56,.15-3.83,.06-.66-.05-1.33-.13-1.97-.27-.59-.13-1.17-.3-1.72-.54-1.16-.49-2.18-1.38-2.62-2.56-.47-1.17-.45-2.47-.27-3.7,.19-1.24,.57-2.46,1.03-3.64,.48-1.17,1.05-2.32,1.73-3.42,.68-1.1,1.46-2.16,2.42-3.11,.48-.48,1.02-.93,1.63-1.32,.16-.1,.31-.19,.48-.28l.25-.13c.07-.04,.13-.07,.23-.11,.35-.16,.67-.29,1.02-.41,1.38-.46,2.89-.61,4.37-.39,.08,.01,.17,.03,.25,.04,.91,.15,1.79,.43,2.63,.84,1.82,.88,3.38,2.33,4.36,4.14,.73,1.35,1.16,2.86,1.21,4.39,0,.02,0,.04,0,.06,.01,.33,0,.65-.02,.98Zm-.45,8.46h-.02s.02,0,.03,0h-.01Z"/>
        <path class="cls-1" d="M359.37,495.93v-10.21c-.05-1.36-.06-2.66,0-3.87,3.1,6.65,8.17,15.36,12.97,20.07,1.54,1.51,3.15,2.9,4.8,4.15-3.55,1.66-7.52,2.59-11.7,2.59-9.79,0-18.39-5.08-23.33-12.74-1.12-1.6-2.44-4.74-2.44-4.74,5.2,4.74,19.7,4.75,19.7,4.75Z"/>
      </g>
      <path class="cls-1" d="M358.82,455.58c-1.31,.15-2.59,.46-3.84,.9-1.17,.43-2.3,.98-3.36,1.62-.77,.03-1.55,.14-2.32,.37-.91,.28-1.8,.77-2.49,1.51-.34,.37-.62,.8-.82,1.26-.1,.23-.19,.46-.26,.7l-.05,.18-.03,.1-.02,.08s-.03,.14-.04,.21c-.01,.07-.02,.14-.02,.21-.02,.29,0,.58,.06,.85-.24,.32-.48,.64-.71,.97-.21,.07-.41,.13-.61,.21-1.33,.51-2.62,1.33-3.56,2.5-.47,.59-.84,1.25-1.1,1.95-.13,.35-.24,.71-.32,1.06-.02,.09-.04,.18-.06,.27l-.03,.14-.02,.14c-.03,.21-.04,.4-.05,.61,0,.8,.2,1.56,.51,2.24-.43,.47-.82,.99-1.17,1.53-.44,.7-.78,1.47-1.01,2.27-.23,.8-.34,1.63-.35,2.46,0,.41,.02,.82,.06,1.23l.02,.15,.02,.15c.01,.1,.03,.22,.05,.32,.04,.21,.09,.42,.14,.62,.23,.81,.61,1.58,1.07,2.26,.04,.06,.09,.12,.13,.17,.05,1.07,.17,2.13,.39,3.18,.13,.64,.29,1.28,.48,1.92,0,0,1.39,1,1.78,1.2-.33-1.09-.59-2.21-.74-3.33-.04-.33-.08-.67-.11-1,1.11,.97,2.34,1.76,3.61,2.45,.48,.26,.96,.5,1.45,.73-.08,.9-.14,1.83-.2,2.78l1.01,.36,.67,.17,.29-2.52c1.6,.66,3.23,1.21,4.88,1.71-.15,1.05-.22,1.66-.22,1.66l.51,.08s0,0,0,.01c.13,.01,.26,.03,.39,.04,.05-.52,.1-1.03,.16-1.55,1.62,.46,3.26,.87,4.91,1.23v-2.04c-.17-.03-2.08-.4-4.65-1.15,.07-.48,.14-.95,.22-1.43,.3-1.75,.65-3.49,1.05-5.22,.1,.04,.19,.09,.28,.13,1.03,.45,2.06,.87,3.1,1.28v-2.04c-.14-.06-1.29-.5-2.93-1.24,.4-1.59,.83-3.18,1.3-4.75,.45-1.53,.93-3.05,1.43-4.57,.6,.28,1.2,.54,1.81,.81,0,0-.01,0-.02-.01-.15-.14-.3-.3-.44-.46-.05-.06-.09-.11-.13-.16l-.05-.06s-.05-.06-.07-.1c-.09-.11-.17-.21-.24-.32-.02-.02-.03-.04-.04-.06l-.03-.05s-.07-.1-.1-.15c-.13-.19-.26-.4-.37-.61-.13-.24-.23-.47-.32-.68-.02-.05-.04-.1-.06-.15-.04-.11-.09-.22-.13-.33,0,0-2.4-.8-4.89-2.23,1.79-4.24,4.13-8.33,7.21-11.62,.06-.05,.11-.1,.17-.15,.26-.21,.54-.4,.82-.59,.1-.17,.21-.34,.31-.51-.77-.03-1.54,0-2.3,.09Zm-11.6,5.89c.13-.26,.29-.5,.48-.71,.49-.59,1.18-1.02,1.94-1.31,.03-.01,.07-.02,.1-.03-.47,.37-.93,.76-1.37,1.17-.4,.37-.79,.76-1.16,1.15,0-.09,0-.18,.02-.27Zm-1.96,5.9c.37-.68,.77-1.34,1.19-1.99,.04,.06,.08,.12,.12,.17,.57,.77,1.25,1.4,1.95,1.99,.37,.31,.75,.6,1.13,.87,.26,.19,.52,.37,.78,.54,.07,.04,.13,.09,.2,.13-1.18,2.58-2.28,5.6-3.19,9.12-2-1.3-3.84-2.76-5.06-4.31,.18-.52,.37-1.03,.56-1.55,.22-.56,.44-1.11,.68-1.66,.49-1.13,1.03-2.24,1.62-3.32Zm-4.34,2.62c.03-.1,.06-.2,.1-.3,.2-.57,.49-1.11,.85-1.59,.48-.65,1.1-1.19,1.8-1.63-.01,.02-.03,.05-.05,.07-.98,1.65-1.79,3.37-2.48,5.13-.18-.56-.27-1.12-.23-1.69Zm-1.45,6.92c-.29,1.21-.52,2.43-.66,3.66-.03,.24-.05,.47-.07,.71-.22-.63-.33-1.3-.33-2,.05-.51,.15-1,.29-1.49,.26-.89,.68-1.74,1.21-2.51-.16,.54-.31,1.08-.44,1.62Zm.91,7.08c.03-1.07,.12-2.14,.28-3.21,.17-1.16,.4-2.32,.7-3.47,.08-.33,.18-.67,.27-1,.75,.76,1.56,1.42,2.39,2.04,.95,.7,1.94,1.34,2.94,1.93-.51,2.32-.94,4.83-1.25,7.56-2.07-1.06-3.99-2.33-5.34-3.86Zm7.15,4.71l.15-1.29,.39-2.95c.18-1.01,.38-2.08,.61-3.19,1.65,.9,3.33,1.71,5.04,2.47-.55,2.61-.97,4.96-1.26,6.77-1.54-.47-3.25-1.07-4.94-1.81Zm7.85-16.92c.47,.24,.95,.47,1.42,.69-1.08,3.07-1.96,6.33-2.66,9.36-1.49-.69-3.25-1.58-5-2.61,.7-2.97,1.63-6.16,2.85-9.31,1.11,.67,2.24,1.28,3.39,1.86Zm4.43-15.46c-.91,.6-1.72,1.32-2.48,2.1-.14,.15-.28,.3-.42,.46-.06,.06-.11,.12-.17,.18-1.25,1.41-2.31,2.98-3.24,4.61-.08,.13-.15,.26-.22,.39-.1,.19-.2,.37-.3,.56-.05,.09-.09,.18-.14,.26-.49,.83-.99,1.73-1.47,2.7-1.58-1.06-3.04-2.36-3.73-3.86,.57-.75,1.18-1.48,1.84-2.16,.83-.87,1.75-1.67,2.74-2.39,.14-.1,.28-.2,.43-.3,.34-.24,.69-.47,1.06-.69,.54-.32,1.11-.62,1.69-.89,1.12-.53,2.32-.94,3.55-1.23,.61-.14,1.23-.25,1.86-.32-.34,.18-.66,.37-.98,.58Z"/>
    </g>
  </g>
  <path class="cls-1" d="M336.93,467.42h0l-1.19,4.88,1.19-4.88Zm-75.56,14.3h0l-.1,.43,.1-.43Zm-.69,2.96l.59-2.53-.62,2.53h.03Zm36.22-.89l1.19-4.88h0l-1.19,4.88h0Zm-30.17-17.03l-.37,1.55,.38-1.55h0Zm-2.74,11.39l1.67-6.86,.38-1.55,.8-3.27c.13-.5,.42-.99,.87-1.46,.45-.47,.99-.9,1.59-1.27,.61-.38,1.27-.68,1.99-.92,.72-.24,1.41-.38,2.07-.44,.13-.03,.23-.05,.32-.06,.09-.01,.16-.02,.21-.02h28.38l-2.01,8.22h-21.24c-.07,0-.13,0-.19,0h0s-1.06,0-1.06,0l-.05,.21-.64,2.63h17.34c.66,0,1.26,.13,1.8,.4,.54,.26,1,.58,1.37,.96,.37,.38,.64,.77,.84,1.17,.19,.4,.25,.74,.17,1.02l-1.22,4.99-1.19,4.88-.55,2.23c-.18,.69-.49,1.3-.95,1.82-.45,.51-1.01,.95-1.65,1.29-.64,.35-1.36,.61-2.15,.79-.79,.18-1.58,.27-2.39,.27h-28.03l2.06-8.47h22.23l.61-2.55h-17.3c-.35,0-.8-.08-1.33-.25-.53-.17-1.03-.42-1.5-.75-.47-.33-.84-.75-1.1-1.25-.27-.5-.32-1.09-.17-1.75Zm-88.36,11.77c.59,.95,1.37,1.73,2.33,2.34,.96,.61,2.06,.92,3.3,.92h41l4.61-18.93c.04-.08,.07-.17,.12-.26l2.85-11.7h-6.32c-5.1,0-6.3,3.89-6.44,4.46l-4.19,17.24h-7.69l5.28-21.7h-11.9l-5.28,21.66h-2.54c-.45,0-.97-.03-1.56-.08-.58-.05-1.11-.18-1.59-.38-.48-.19-.86-.48-1.14-.85-.28-.38-.34-.9-.19-1.57l2.59-10.67,.14-.56,.73-3.03h0l1.1-4.53h-11.16l-1.99,8.18-3.18,13.11c-.25,1.03-.28,2.11-.08,3.24,.2,1.13,.6,2.16,1.2,3.11Zm161.34-25.1c-.29-.51-.69-.95-1.2-1.32,0,0-.01-.01-.02-.02-.52-.37-1.09-.67-1.71-.88-.62-.21-1.17-.31-1.65-.31h-28.25l-2,8.22h1.29s9.21-.02,9.21-.02h0s11.62,0,11.62,0v.06s-.79,3.24-.79,3.24h-11.62s-10.62,.01-10.62,.01l-4.72,19.38h10.86l2.66-10.98h17.99c.33,0,.82-.11,1.48-.33,.66-.22,1.32-.51,1.97-.86,.66-.35,1.25-.73,1.79-1.15,.53-.42,.85-.82,.95-1.21l.82-3.36,1.19-4.88,.96-3.94c.15-.58,.08-1.13-.21-1.65Zm-72.03,1.65l-.6,2.45-3.68,15.79-.1,.43-.62,2.53-1.35,5.52h-28.32c-.81,0-1.56-.09-2.26-.27-.7-.18-1.28-.44-1.76-.79-.48-.35-.82-.78-1.02-1.29-.2-.52-.21-1.12-.04-1.82l2.96-12.1c.08-.28,.29-.62,.64-1.02,.35-.4,.8-.79,1.35-1.17,.54-.38,1.15-.7,1.82-.96,.67-.26,1.35-.4,2.03-.4h17.45l.52-2.46,.09-.42h-22.32l1.98-8.18h28.21s.11,0,.19,.02c.08,.01,.18,.03,.3,.06,.61,.05,1.21,.2,1.82,.44,.61,.24,1.13,.54,1.57,.92,.44,.38,.77,.8,.99,1.27,.21,.47,.26,.96,.13,1.46Zm-15.37,15.4h-12.92c-.1,.15-.33,.6-.37,.75-.05,.17-.08,.35-.09,.56-.01,.21,.01,.4,.08,.58,.06,.18,.12,.44,.27,.56,.15,.13,.46,.38,.74,.38h11.51l.78-2.84Z"/>
</svg>