<svg id="Layer_1" data-name="Layer 1" xmlns="http://www.w3.org/2000/svg" viewBox="0 0 1604.2 772"><defs><style>.cls-1{fill:#fff;}</style></defs><title>WASP-white</title><path class="cls-1" d="M1168.59,323.57h0l-8.13,33.48Zm-517.88,98h0l-.68,2.92ZM646,441.86l4-17.35-4.25,17.35Zm248.29-6.11,8.17-33.46h0l-8.19,33.45ZM687.48,319l-2.56,10.64L687.5,319ZM668.7,397.05,680.16,350l2.59-10.63L688.21,317a22.51,22.51,0,0,1,6-10,55.24,55.24,0,0,1,10.93-8.73,63.41,63.41,0,0,1,13.66-6.3,61.24,61.24,0,0,1,14.17-3c.87-.2,1.61-.34,2.22-.43a9.22,9.22,0,0,1,1.44-.15h194.5L917.34,344.7H771.73c-.46,0-.87,0-1.3.05l.06,0h-7.25l-.34,1.4-4.4,18H877.38a27.8,27.8,0,0,1,12.36,2.72,33,33,0,0,1,9.36,6.58,29.54,29.54,0,0,1,5.73,8q1.95,4.16,1.17,7l-8.36,34.19-8.19,33.46-3.75,15.32a29.66,29.66,0,0,1-6.5,12.45,40.66,40.66,0,0,1-11.31,8.86,57.53,57.53,0,0,1-14.71,5.42,71.62,71.62,0,0,1-16.4,1.87H644.67L658.81,442H811.19l4.19-17.44H696.8a31.81,31.81,0,0,1-9.11-1.72,36.4,36.4,0,0,1-10.27-5.15,24.38,24.38,0,0,1-7.55-8.58Q667.14,403.92,668.7,397.05ZM63.08,477.72a50.8,50.8,0,0,0,16,16A41.21,41.21,0,0,0,101.72,500h281l31.57-129.72c.24-.57.5-1.16.81-1.77l19.54-80.21h-43.3c-35,0-43.15,26.67-44.16,30.58L318.47,437.1H265.78L302,288.34H220.39L184.2,436.82H166.76c-3.11,0-6.67-.19-10.66-.58a38.23,38.23,0,0,1-10.92-2.57,17.73,17.73,0,0,1-7.81-5.85q-2.87-3.88-1.3-10.74L153.8,344l.92-3.83,5-20.74h0l7.52-31.07H90.79l-13.6,56.07L55.41,434.24a52.74,52.74,0,0,0-.52,22.18A59.1,59.1,0,0,0,63.08,477.72ZM1168.93,305.65a28.7,28.7,0,0,0-8.19-9.06l-.13-.1a43.52,43.52,0,0,0-11.71-6,35.88,35.88,0,0,0-11.32-2.15H944l-13.7,56.36h8.8l0-.06,63.16-.1v0h79.62l-.1.42-5.33,22.19H996.79l-72.77.08L891.69,500h74.42l18.21-75.24h123.33c2.25,0,5.64-.75,10.16-2.28a91.82,91.82,0,0,0,13.51-5.87,80.85,80.85,0,0,0,12.24-7.87q5.48-4.29,6.5-8.3l5.61-23.06L1163.8,344l6.56-27A14.67,14.67,0,0,0,1168.93,305.65ZM675.21,317l-4.09,16.77L645.92,442l-.67,2.92L641,462.24,631.75,500H437.64a60.56,60.56,0,0,1-15.49-1.87,35.2,35.2,0,0,1-12.09-5.42,19.75,19.75,0,0,1-7-8.86q-2.08-5.31-.26-12.45l20.3-83q.78-2.85,4.42-7a49.44,49.44,0,0,1,9.24-8,61.57,61.57,0,0,1,12.49-6.58,37.51,37.51,0,0,1,13.92-2.72h119.6l3.55-16.88.6-2.86h-153l13.6-56.07H640.86a7.18,7.18,0,0,1,1.3.15c.52.09,1.21.23,2.08.43a45,45,0,0,1,12.49,3,38,38,0,0,1,10.8,6.3,25.28,25.28,0,0,1,6.77,8.73A14.9,14.9,0,0,1,675.21,317ZM569.83,422.51H481.28a28.86,28.86,0,0,0-2.53,5.15,16.79,16.79,0,0,0-.65,3.87,10.14,10.14,0,0,0,.52,4c.44,1.25.84,3,1.88,3.84s3.19,2.59,5.08,2.59h78.88Z"/><path class="cls-1" d="M1361.11,279.21a45.7,45.7,0,0,1,8-5.18c.75-.39,1.5-.72,2.29-1l1.21-.47c.33-.13.63-.24,1.08-.39a45.68,45.68,0,0,1,4.78-1.35,43.56,43.56,0,0,1,20,.34,44.78,44.78,0,0,1,30.27,26.18A45.36,45.36,0,0,1,1432,317.7a44.21,44.21,0,0,1-6.08,19.5,43.45,43.45,0,0,1-31.85,21,110.56,110.56,0,0,1-17.63,1.12,107.66,107.66,0,0,1-17.32-1.57,51.91,51.91,0,0,1-16.3-5.45c-5-2.77-9.17-7.26-10.59-12.81a10.33,10.33,0,0,0,.51,1.48c.2.49.41.95.64,1.42-.23-.47-.45-.93-.64-1.42a11.2,11.2,0,0,1-.51-1.48c-1.57-5.49-.85-11.35.56-16.84a75.87,75.87,0,0,1,6.42-15.9,102.44,102.44,0,0,1,9.45-14.63A74.58,74.58,0,0,1,1361.11,279.21Z"/><path class="cls-1" d="M1395.57,442l-.63.61.27-.79c-3-1.45-5.9-2.93-8.86-4.47q-6.13-3.19-12.29-6.67c-8.4-4.77-16.8-10-25.13-15.64-9-6.13-17.93-12.8-26.66-20.09,0,0,4.08,10.28,11.9,26.22,20.07,40.89,64.78,119,128.33,156.17l.94.54a190.51,190.51,0,0,0,64-68.37,189.06,189.06,0,0,0,11.41-24.69c.22-.62.43-1.25.65-1.87C1526.61,481.92,1463.6,475.18,1395.57,442Z"/><path class="cls-1" d="M1539.42,354.53a448.75,448.75,0,0,1-78.16,28.06c-35.69,9.17-78,15.17-123.14,11.55,0,0,24.12,15.7,60,32.09,4.93,2.25,10.06,4.51,15.38,6.74a458.43,458.43,0,0,0,45.68,16.47c27.44,8.21,57,13.8,85.73,13.27A190.73,190.73,0,0,0,1539.42,354.53Z"/><path class="cls-1" d="M1334.33,365.57m-7.18-6.66c.36.42.68.87,1,1.29a33.69,33.69,0,0,0,2.5,2.57,53.38,53.38,0,0,0,16,10.07c11.76,4.89,24.56,6.7,37.26,7.27a208.3,208.3,0,0,0,38.22-2.11,240.15,240.15,0,0,0,37.69-8.27,92.32,92.32,0,0,0,59.58-52.43c.24-.53.43-1.09.65-1.63.71-1.73,1.35-3.5,2-5.29a92.26,92.26,0,0,0,4.83-34.15,94.64,94.64,0,0,0-11.35-40.47,93.48,93.48,0,0,0-27.91-31.45c-2.34-1.68-4.81-3.22-7.31-4.67A185.38,185.38,0,0,0,1462.6,189,200.7,200.7,0,0,0,1418,172.28c-30.65-7.62-62.18-8.12-92.47-3.86,29.34-.27,58.53,4.09,85.31,14.05h-1c-15,.38-29.39,3.12-43.45,6.35s-27.86,7.21-41.61,11.28c14.18-2.12,28.39-4.06,42.56-5.34a247.63,247.63,0,0,1,32-1c-.33.14-.67.26-1,.38a80.39,80.39,0,0,0-9.21,4.57,98.33,98.33,0,0,0-16.16,12l-.19.18a145.91,145.91,0,0,0-14.49,15.28c-3.76,4.52-7.3,9.22-10.61,14a202.59,202.59,0,0,0-18.58,33.47,156.84,156.84,0,0,0-11.35,36.26c-1.83,10.92-2.25,22.42.87,33.08.43,1.46.91,2.9,1.47,4.31s1.18,2.65,1.85,3.93,1.45,2.5,2.26,3.7c.27.43.59.85.88,1.28h0a42.73,42.73,0,0,0,2.68,3.35m6.47,6,138.33-63.7c-.16,2.23-.45,4.43-.82,6.65a66.87,66.87,0,0,1-5.07,16.48,65.57,65.57,0,0,1-44.42,36.59,164.1,164.1,0,0,1-26.28,4.48,159,159,0,0,1-26.26.44,102.41,102.41,0,0,1-13.53-1.88,62.38,62.38,0,0,1-11.8-3.68c-7.92-3.35-14.93-9.43-18-17.52-3.24-8-3.08-16.91-1.84-25.37a115.56,115.56,0,0,1,7.09-24.92,157,157,0,0,1,11.82-23.45,113.16,113.16,0,0,1,16.62-21.34,68.89,68.89,0,0,1,11.17-9.06c1.07-.68,2.14-1.32,3.28-1.94l1.73-.89c.47-.24.91-.47,1.56-.75a65.11,65.11,0,0,1,37-5.49c.58.08,1.15.19,1.73.29a65.08,65.08,0,0,1,18,5.76,67.35,67.35,0,0,1,29.85,28.39,68.79,68.79,0,0,1,8.28,30.09c0,.14,0,.27,0,.41C1472.77,297.41,1472.72,299.63,1472.57,301.87Zm-3.08,58-.14.05.22-.11Z"/><path class="cls-1" d="M1322.4,519V449c-.37-9.3-.4-18.23,0-26.55,21.24,45.61,56,105.28,88.9,137.6a340,340,0,0,0,32.91,28.48,190.13,190.13,0,0,1-240.1-69.58c-7.65-11-16.73-32.48-16.73-32.48C1223,518.92,1322.4,519,1322.4,519Z"/><path class="cls-1" d="M1318.59,242.46a118.66,118.66,0,0,0-26.3,6.19,129.76,129.76,0,0,0-23,11.11,63.13,63.13,0,0,0-15.91,2.53,38,38,0,0,0-17,10.37,33.89,33.89,0,0,0-5.64,8.63,34.72,34.72,0,0,0-1.76,4.78l-.34,1.22-.17.72-.12.55c-.08.3-.18.94-.25,1.42s-.11.93-.15,1.41a22.32,22.32,0,0,0,.38,5.85c-1.68,2.18-3.29,4.38-4.86,6.62-1.41.44-2.81.92-4.21,1.44-9.13,3.49-18,9.09-24.43,17.15a50.59,50.59,0,0,0-7.56,13.36,53.51,53.51,0,0,0-2.18,7.29c-.13.61-.27,1.22-.39,1.86l-.18,1-.16.93A32.77,32.77,0,0,0,1184,351a36.48,36.48,0,0,0,3.51,15.39,73.07,73.07,0,0,0-8,10.52,62.37,62.37,0,0,0-6.92,15.58,63.52,63.52,0,0,0-2.4,16.86,76.74,76.74,0,0,0,.39,8.45l.11,1,.14,1.06c.09.68.22,1.48.35,2.17.25,1.43.58,2.86,1,4.25a54,54,0,0,0,7.35,15.49c.28.42.58.8.86,1.19a145.94,145.94,0,0,0,2.66,21.82q1.34,6.63,3.26,13.12s9.55,6.87,12.17,8.21a141.81,141.81,0,0,1-5.06-22.85c-.29-2.29-.53-4.59-.73-6.87a134.66,134.66,0,0,0,24.73,16.81c3.26,1.76,6.57,3.4,9.91,5-.54,6.21-1,12.55-1.35,19.06l6.92,2.48,4.61,1.16,2-17.3a354.38,354.38,0,0,0,33.45,11.71c-1,7.22-1.52,11.39-1.52,11.39l3.48.53a.51.51,0,0,1,0,.1c.91.1,1.79.19,2.68.3.32-3.55.67-7.08,1.07-10.61,11.14,3.16,22.36,5.93,33.65,8.4v-14c-1.14-.21-14.26-2.71-31.91-7.86.47-3.27,1-6.52,1.52-9.78q3.06-18,7.2-35.79l2,.87c7,3.05,14.13,6,21.24,8.8v-14c-1-.39-8.87-3.42-20.09-8.48q4.1-16.4,8.92-32.58c3.05-10.5,6.36-20.93,9.8-31.31,4.11,1.89,8.25,3.73,12.39,5.54l-.11-.09c-1-1-2.07-2-3-3.12-.33-.38-.62-.74-.91-1.11l-.31-.39a6.29,6.29,0,0,1-.48-.67c-.6-.73-1.15-1.45-1.68-2.17-.11-.14-.2-.27-.3-.41l-.24-.34c-.24-.34-.48-.68-.7-1a48,48,0,0,1-4.75-8.86c-.14-.34-.26-.69-.39-1-.3-.74-.6-1.48-.88-2.26A209.53,209.53,0,0,1,1276,330.09c12.25-29.06,28.33-57.09,49.42-79.65.4-.34.79-.7,1.19-1,1.8-1.44,3.69-2.76,5.62-4,.71-1.18,1.43-2.36,2.15-3.52A105.7,105.7,0,0,0,1318.59,242.46Zm-79.52,40.37a25.14,25.14,0,0,1,3.27-4.89,31.13,31.13,0,0,1,13.31-9c.22-.07.45-.14.67-.23q-4.87,3.84-9.42,8c-2.75,2.54-5.39,5.19-8,7.91Q1239,283.75,1239.07,282.83Zm-13.45,40.46c2.53-4.66,5.27-9.19,8.18-13.62.27.39.54.8.82,1.19A81,81,0,0,0,1248,324.47c2.53,2.11,5.13,4.09,7.77,6,1.78,1.28,3.57,2.51,5.38,3.73l1.36.91a372,372,0,0,0-21.84,62.48c-13.67-8.9-26.31-18.95-34.66-29.56q1.85-5.32,3.87-10.6c1.48-3.83,3-7.64,4.65-11.4C1217.87,338.28,1221.55,330.69,1225.62,323.29Zm-29.77,18c.21-.68.42-1.36.66-2a40.16,40.16,0,0,1,5.86-10.91,43.81,43.81,0,0,1,12.36-11.15c-.1.17-.2.33-.31.49a248.27,248.27,0,0,0-17,35.16A29.88,29.88,0,0,1,1195.85,341.28Zm-9.94,47.46a215.48,215.48,0,0,0-4.53,25.11c-.19,1.62-.34,3.23-.49,4.86a42.45,42.45,0,0,1-2.27-13.69,58.84,58.84,0,0,1,2-10.21,57.24,57.24,0,0,1,8.32-17.19C1187.83,381.3,1186.81,385,1185.91,388.74Zm6.21,48.54a186.29,186.29,0,0,1,1.92-22,221.32,221.32,0,0,1,4.8-23.77q.87-3.42,1.85-6.84a135.55,135.55,0,0,0,16.39,14,234.86,234.86,0,0,0,20.17,13.25,495.3,495.3,0,0,0-8.53,51.81C1214.5,456.49,1201.37,447.72,1192.12,437.28Zm49,32.27,1-8.85,2.7-20.22c1.2-6.93,2.59-14.26,4.2-21.89,11.29,6.15,22.85,11.71,34.54,17-3.8,17.88-6.65,34-8.62,46.4A322,322,0,0,1,1241.09,469.55Zm53.84-115.94c3.23,1.63,6.49,3.2,9.75,4.76a596.7,596.7,0,0,0-18.25,64.18c-10.19-4.76-22.28-10.84-34.29-17.89a489.41,489.41,0,0,1,19.53-63.82C1279.27,345.42,1287.05,349.63,1294.93,353.61Zm30.4-106a105.48,105.48,0,0,0-17,14.41c-1,1-1.93,2.07-2.89,3.12l-1.14,1.26a188,188,0,0,0-22.2,31.58c-.51.9-1,1.8-1.52,2.7-.7,1.27-1.4,2.54-2.08,3.82-.32.6-.63,1.2-.94,1.8-3.39,5.69-6.78,11.86-10.11,18.49-10.86-7.23-20.84-16.17-25.58-26.47a181.09,181.09,0,0,1,12.6-14.83,144.49,144.49,0,0,1,18.75-16.38c1-.71,2-1.37,2.93-2.05,2.35-1.64,4.75-3.22,7.23-4.69a123.79,123.79,0,0,1,11.57-6.12,121,121,0,0,1,24.33-8.4,109.15,109.15,0,0,1,12.77-2.19C1329.73,244.89,1327.49,246.23,1325.33,247.63Z"/></svg>